<?xml version="1.0" encoding="UTF-8"?>
<svg xmlns="http://www.w3.org/2000/svg" xmlns:xlink="http://www.w3.org/1999/xlink" width="100px" height="100px" viewBox="0 0 100 100" version="1.1">
<g id="surface1">
<path style=" stroke:none;fill-rule:nonzero;fill:rgb(100%,100%,100%);fill-opacity:1;" d="M 85.328125 60.132812 C 85.855469 62.988281 82.261719 64.851562 79.886719 65.308594 C 75.703125 65.777344 71.714844 65.667969 67.722656 67.359375 C 55.613281 72.589844 49.6875 64.855469 37.816406 66.746094 C 39.425781 66.722656 40.96875 67.777344 42.378906 68.414062 C 47.175781 69.726562 50.351562 67.648438 55.308594 70.550781 C 56.332031 70.996094 57.96875 70.363281 58.203125 71.835938 C 57.5 74.597656 52.6875 72.476562 50.972656 72.164062 C 45.570312 72.527344 39.589844 72.4375 34.824219 69.460938 C 32.285156 68.570312 29.003906 69.433594 26.707031 67.539062 C 25.367188 66.488281 24.496094 64.875 23.4375 63.679688 C 21.253906 61.074219 17.652344 60.796875 15.042969 58.71875 C 13.25 57.121094 12.574219 54.59375 12.929688 52.28125 C 12.964844 52.066406 13.164062 51.917969 13.382812 51.953125 C 13.59375 51.984375 13.738281 52.183594 13.710938 52.394531 C 13.460938 54.414062 14.113281 56.65625 15.679688 57.984375 C 17.820312 59.597656 20.847656 59.980469 23.007812 61.707031 C 24.855469 62.992188 25.785156 65.203125 27.476562 66.546875 C 30.84375 68.589844 34.027344 66.691406 38.316406 69.617188 C 41.214844 70.703125 44.636719 70.988281 47.714844 70.863281 C 49.265625 70.644531 51.011719 70.464844 52.542969 71.019531 C 50.070312 69.789062 47.332031 70.628906 44.667969 70.378906 C 42.828125 70.339844 41.011719 69.464844 39.46875 68.550781 C 37.753906 67.960938 35.488281 68.035156 33.699219 67.371094 C 29.902344 66.523438 32.757812 63.726562 28.691406 62.671875 C 26.226562 61.796875 23.339844 61.246094 21.144531 59.738281 C 20.511719 59.234375 18.773438 57.796875 19.5 57.035156 C 19.691406 56.949219 19.917969 57.027344 20.011719 57.210938 C 20.382812 57.949219 20.96875 58.539062 21.660156 58.992188 C 23.460938 60.148438 25.71875 60.554688 27.765625 61.175781 C 38.136719 64.152344 25.257812 67.226562 43.046875 65.410156 C 52.355469 65.882812 57.664062 70.433594 67.277344 66.058594 C 69.550781 65.257812 71.914062 64.484375 74.359375 64.304688 C 77.65625 64.054688 81.96875 64.457031 83.8125 61.167969 C 80.609375 61.917969 77.53125 63.917969 74.070312 63.460938 C 72.644531 63.417969 70.757812 62.265625 72.09375 60.757812 C 69.472656 59.949219 66.804688 61.378906 64.195312 61.960938 C 62.910156 62.265625 61.476562 62.53125 60.167969 62.707031 C 49.6875 63.863281 39.242188 62.003906 28.90625 60.570312 C 28.425781 60.5 28.507812 59.726562 29.015625 59.792969 C 38.410156 60.765625 47.894531 62.136719 57.351562 61.542969 C 60.9375 61.308594 64.257812 60.457031 67.691406 59.40625 C 69.347656 58.773438 75.40625 58.535156 73.277344 61.71875 C 76.773438 63.4375 83.71875 58.070312 85.328125 60.132812 Z M 70.488281 63.195312 C 69.914062 59.980469 58.957031 64.023438 56.511719 64.042969 C 54.867188 64.277344 53.222656 64.300781 51.582031 64.007812 C 51.402344 63.972656 51.21875 64.066406 51.144531 64.242188 C 51.054688 65.210938 53.253906 65.230469 53.96875 65.433594 C 59.300781 66.113281 64.253906 62.96875 69.488281 63.230469 C 69.257812 64.066406 70.175781 64.890625 70.976562 64.519531 C 71.414062 64.3125 71.128906 63.636719 70.667969 63.792969 C 70.324219 63.734375 70.433594 63.558594 70.488281 63.195312 Z M 65.796875 64.40625 C 64.199219 64.878906 62.699219 65.542969 61.128906 65.992188 C 60.636719 66.207031 58.441406 66.300781 59.539062 67.148438 C 62.65625 67.976562 65.4375 65.734375 68.246094 64.800781 C 69.402344 63.488281 66.328125 64.222656 65.796875 64.40625 Z M 95.769531 51.953125 C 94.652344 47.980469 91.992188 46.855469 92.234375 41.910156 C 90.390625 35.753906 82.621094 37.144531 77.683594 35.980469 C 75.929688 34.449219 74.042969 32.503906 71.5 32.429688 C 68.011719 32.371094 64.558594 32.46875 61.074219 32.605469 C 50.945312 27.425781 40.625 31.457031 30.167969 32.53125 C 24.058594 32.863281 16.480469 30.9375 12.050781 36.464844 C 10.933594 37.421875 12.1875 39.058594 13.417969 38.511719 C 14.621094 38.050781 15.628906 37.152344 16.890625 36.917969 C 17.332031 36.722656 17.832031 37.136719 17.6875 37.597656 C 17.613281 37.859375 17.257812 37.992188 17.046875 38.136719 C 13.015625 40.742188 8.46875 42.769531 4.992188 46.132812 C 3.15625 48.496094 4.570312 50.792969 7.382812 50.910156 C 7.90625 51.25 7.925781 51.910156 8.535156 52.324219 C 10.285156 53.410156 11.304688 51.027344 10.984375 49.679688 C 11.441406 44.34375 17.601562 44.996094 21.175781 43.171875 C 34.820312 30.410156 59.101562 35.125 75.058594 40.996094 C 75.429688 41.148438 75.722656 40.515625 75.292969 40.367188 C 65.589844 36.574219 55.285156 33.839844 44.789062 34 C 37.816406 34.171875 30.601562 35.3125 24.449219 38.792969 C 22.167969 39.976562 21.035156 42.636719 18.257812 42.863281 C 14.023438 43.285156 9.089844 45.914062 9.667969 50.839844 C 9.609375 51.253906 9.277344 51.503906 9.046875 50.964844 C 8.648438 49.707031 7.046875 49.492188 6.035156 49.308594 C 3.679688 46.886719 9.488281 44.507812 11.050781 43.242188 C 13.375 41.753906 15.773438 40.359375 18.132812 38.921875 C 19.460938 38.132812 19.039062 35.945312 17.53125 35.675781 C 15.773438 35.445312 14.359375 36.921875 12.867188 37.375 C 17.132812 32.027344 24.324219 34.097656 30.246094 33.632812 C 40.421875 32.566406 50.855469 28.410156 60.65625 33.300781 C 63.855469 34.574219 67.03125 36.050781 70.433594 36.925781 C 70.613281 36.972656 70.796875 36.867188 70.84375 36.6875 C 70.894531 36.503906 70.785156 36.320312 70.605469 36.269531 C 68.058594 35.582031 65.621094 34.539062 63.167969 33.488281 C 74.195312 34.011719 71.03125 32.546875 79.535156 39.3125 C 82.039062 40.753906 85.109375 41.101562 87.167969 43.28125 C 91.730469 47.398438 90.378906 54.609375 84.363281 56.371094 C 83.1875 58.082031 86.929688 56.257812 87.40625 55.890625 C 92.335938 53.105469 92.15625 45.796875 88.167969 42.25 C 85.710938 39.507812 81.777344 39.371094 79.042969 37.109375 C 82.777344 38.183594 87.058594 37.335938 89.960938 40.453125 C 90.886719 41.167969 91.03125 42.101562 91.015625 43.226562 C 90.621094 48.257812 96.820312 50.855469 93.769531 55.136719 C 92.5 57.085938 90.597656 58.574219 88.394531 59.34375 C 86.890625 61.800781 96.71875 56.746094 95.769531 51.953125 Z M 76.625 72.410156 C 75.8125 73.109375 75.519531 74.078125 75.238281 75.074219 C 75.226562 75.25 75.03125 75.488281 74.894531 75.515625 C 74.378906 75.09375 74.457031 74.246094 74.042969 73.714844 C 73.875 73.058594 72.640625 72.449219 73.09375 71.765625 C 74.339844 70.886719 74.148438 68.296875 75.003906 68.410156 C 75.800781 68.632812 75.511719 69.859375 75.867188 70.464844 C 76.003906 70.855469 76.210938 71.457031 76.492188 71.691406 C 76.730469 71.851562 76.792969 72.175781 76.625 72.410156 Z M 75.503906 72.148438 C 75.199219 71.75 75.03125 71.335938 74.867188 70.886719 C 74.625 71.339844 74.316406 71.757812 73.960938 72.125 C 74.296875 72.605469 74.605469 73.128906 74.8125 73.683594 C 74.9375 73.144531 75.152344 72.589844 75.503906 72.148438 Z M 83.355469 51.144531 C 82.816406 51.609375 82.621094 52.253906 82.4375 52.914062 C 82.425781 53.03125 82.296875 53.1875 82.207031 53.207031 C 81.964844 53.074219 81.976562 52.738281 81.875 52.511719 C 81.8125 51.847656 80.765625 51.324219 81.011719 50.71875 C 81.8125 50.203125 81.667969 48.507812 82.277344 48.488281 C 82.890625 48.773438 82.640625 49.820312 83.046875 50.339844 C 83.164062 50.6875 83.582031 50.78125 83.355469 51.144531 Z M 20.769531 65.980469 C 20.230469 66.441406 20.035156 67.085938 19.851562 67.746094 C 19.839844 67.863281 19.714844 68.023438 19.621094 68.039062 C 19.378906 67.90625 19.394531 67.570312 19.289062 67.347656 C 19.226562 66.683594 18.179688 66.160156 18.425781 65.550781 C 19.226562 65.035156 19.082031 63.339844 19.695312 63.320312 C 20.304688 63.605469 20.054688 64.65625 20.460938 65.171875 C 20.578125 65.519531 20.996094 65.617188 20.769531 65.980469 Z M 27.621094 28.417969 C 27.179688 27.953125 29.078125 26.5 28.988281 24.957031 C 29.027344 24.347656 29.960938 24.320312 30.042969 24.917969 C 30.238281 25.863281 30.429688 27.039062 31.054688 27.761719 C 31.679688 28.210938 30.878906 28.738281 30.628906 29.09375 C 30.335938 29.523438 30.140625 30.023438 29.984375 30.535156 C 29.855469 30.851562 29.835938 31.460938 29.460938 31.582031 C 29.332031 31.519531 29.15625 31.304688 29.144531 31.148438 C 28.90625 30.105469 28.320312 29.21875 27.621094 28.417969 Z M 28.527344 28.191406 C 28.863281 28.671875 29.167969 29.195312 29.378906 29.753906 C 29.503906 29.214844 29.714844 28.660156 30.066406 28.214844 C 29.765625 27.820312 29.597656 27.402344 29.433594 26.957031 C 29.1875 27.40625 28.882812 27.824219 28.527344 28.191406 Z M 25.25 35.433594 C 22.90625 35.832031 21.488281 37.871094 19.835938 39.316406 C 19.046875 40.160156 16.371094 40.382812 16.109375 41.203125 C 16.125 41.421875 16.3125 41.589844 16.535156 41.578125 C 18.890625 41.574219 21.285156 40.539062 22.707031 38.609375 C 23.570312 37.683594 24.542969 36.90625 25.570312 36.152344 C 25.914062 35.921875 25.667969 35.332031 25.25 35.433594 Z M 57.988281 40.214844 C 59.761719 40.289062 61.332031 39.441406 63.070312 39.550781 C 63.488281 39.609375 63.691406 38.992188 63.304688 38.796875 C 61.082031 37.722656 58.695312 39.007812 56.402344 38.851562 C 54.90625 39.375 57.375 40.335938 57.988281 40.214844 Z M 33.109375 39.609375 C 34.511719 39.554688 35.894531 38.988281 37.21875 38.605469 C 39.527344 38.074219 39.253906 37.046875 36.964844 37.320312 C 36.179688 37.21875 31.277344 38.636719 33.109375 39.609375 Z M 42.003906 37.859375 C 43.101562 37.722656 44.070312 37.382812 45.167969 37.324219 C 45.5625 37.332031 45.734375 36.769531 45.386719 36.5625 C 43.808594 35.046875 37.511719 37.765625 42.003906 37.859375 Z M 26.589844 58.070312 C 23.835938 57.832031 24.671875 57.941406 22.679688 56.308594 C 20.992188 55.910156 22.984375 59.0625 23.753906 59.179688 C 24.996094 59.496094 26.5 59.363281 27.617188 58.886719 C 27.957031 58.28125 26.929688 58.082031 26.589844 58.070312 Z M 84.945312 52.40625 C 82.664062 54.28125 79.429688 55.449219 76.570312 56.296875 C 76.382812 56.339844 76.253906 56.519531 76.269531 56.714844 C 76.773438 57.753906 80.519531 56.128906 81.488281 55.898438 C 83.871094 55.058594 86.457031 53.828125 87.578125 51.378906 C 88.707031 49.246094 87.84375 46.203125 85.40625 45.488281 C 84.898438 45.378906 83.839844 45.117188 83.683594 45.800781 C 83.679688 46.019531 83.851562 46.199219 84.066406 46.207031 C 87.324219 46.5625 87.15625 50.707031 84.945312 52.40625 Z M 73.714844 55.683594 C 71.675781 56.117188 69.433594 56.707031 67.429688 57.28125 C 66.71875 57.621094 65.535156 57.644531 65.15625 58.382812 C 65.042969 60.15625 76.492188 56.492188 73.714844 55.683594 Z M 53.355469 57.613281 C 50.039062 57.785156 46.757812 57.597656 43.433594 57.738281 C 43.269531 57.746094 43.121094 57.859375 43.074219 58.027344 C 43.308594 59.339844 48.8125 59.175781 50.085938 59.199219 C 52.347656 59.121094 54.613281 58.839844 56.796875 58.246094 C 58.25 56.90625 53.917969 57.730469 53.355469 57.613281 Z M 80.710938 48.105469 C 77.824219 54.589844 66.277344 57.375 59.753906 57.632812 C 59.277344 57.652344 59.207031 56.914062 59.683594 56.851562 C 61.195312 56.617188 62.691406 56.332031 64.171875 55.976562 C 70.496094 54.75 88.742188 46.957031 73.398438 43.105469 C 82.449219 49.925781 65.261719 53.730469 60.382812 54.347656 C 55.429688 54.988281 50.230469 55.007812 45.238281 55.265625 C 44.464844 55.464844 35.59375 54.808594 37.769531 53.75 C 40.25 54.160156 42.679688 54.453125 45.191406 54.234375 C 54.742188 53.316406 65.398438 53.972656 73.757812 48.636719 C 68.679688 53.480469 25.519531 56.34375 25.285156 46.847656 C 22.34375 49.511719 26.71875 52.734375 29.164062 53.636719 C 30.921875 54.078125 32.984375 53.695312 34.71875 54.445312 C 35.929688 55.011719 39.953125 56.8125 37.476562 58.167969 C 35.3125 58.601562 33.214844 57.308594 31.132812 57.160156 C 28.847656 56.976562 26.082031 57.871094 24.078125 56.195312 C 22.988281 55.324219 22.652344 53.792969 21.46875 53.113281 C 19.636719 52.628906 17.121094 52.632812 16.738281 50.167969 C 15.875 45.679688 21.148438 43.691406 24.601562 42.710938 C 28.261719 41.714844 31.992188 41.375 35.515625 40.375 C 38.992188 39.179688 42.800781 37.773438 46.582031 38.632812 C 49.261719 39.058594 52.054688 39.835938 54.691406 40.433594 C 56.617188 40.476562 58.542969 40.585938 60.457031 40.730469 C 63.5625 40.433594 66.804688 40.484375 69.777344 41.5625 C 73.738281 42.050781 81.378906 42.542969 80.710938 48.105469 Z M 35.269531 41.503906 C 40.605469 40.71875 45.980469 40.527344 51.363281 40.410156 C 44.535156 38.671875 41.765625 39.074219 35.269531 41.503906 Z M 20.984375 51.878906 C 21.015625 51.832031 21.050781 51.785156 21.082031 51.738281 C 20.78125 51.34375 20.613281 50.925781 20.449219 50.480469 C 20.214844 50.914062 19.921875 51.3125 19.585938 51.671875 C 20.046875 51.761719 20.523438 51.792969 20.984375 51.878906 Z M 26.457031 44.59375 C 27.636719 43.539062 29.085938 42.945312 30.582031 42.523438 C 26.710938 43.242188 14.242188 45.34375 18.660156 51.328125 C 18.621094 50.546875 19.457031 50.214844 19.648438 49.480469 C 20.121094 48.890625 19.730469 47.523438 20.652344 47.460938 C 21.445312 47.6875 21.160156 48.914062 21.515625 49.519531 C 21.8125 50.9375 23.089844 50.8125 21.707031 52.082031 C 23.625 52.835938 23.785156 55.433594 25.785156 55.980469 C 27.566406 56.546875 29.355469 55.96875 31.230469 56.183594 C 33.140625 56.382812 34.871094 57.273438 36.742188 57.355469 C 37.753906 57.347656 37.265625 56.949219 36.726562 56.589844 C 34.492188 54.597656 31.722656 54.902344 28.957031 54.394531 C 26.726562 53.539062 24.582031 51.800781 23.667969 49.578125 C 23.199219 47.4375 25.40625 46.101562 26.457031 44.59375 Z M 60.511719 50.980469 C 55.015625 47.066406 43.574219 47.964844 37.714844 50.890625 C 38.441406 50.988281 39.167969 51.066406 39.898438 51.136719 C 44.296875 48.3125 53.476562 48.289062 57.847656 51.253906 C 58.738281 51.175781 59.628906 51.089844 60.511719 50.980469 Z M 65.234375 49.585938 C 63.496094 44.449219 36.394531 45.984375 33.394531 50.152344 C 34.445312 50.386719 35.515625 50.574219 36.59375 50.734375 C 41.152344 46.195312 57.617188 44.976562 61.519531 50.847656 C 62.164062 50.757812 62.804688 50.65625 63.4375 50.539062 C 62.417969 49.769531 61.164062 49.34375 60.046875 48.65625 C 58.902344 46.78125 65.042969 48.535156 64.304688 50.375 C 64.542969 50.324219 64.785156 50.273438 65.023438 50.214844 C 65.167969 50.0625 65.242188 49.839844 65.234375 49.585938 Z M 68.675781 48.863281 C 69.007812 48.636719 69.261719 48.34375 69.265625 48.101562 L 69.261719 48.101562 C 66.476562 44.417969 53.5 44.664062 48.824219 44.507812 C 46.109375 44.125 19.320312 46.472656 32.535156 49.945312 C 34.734375 45.769531 45.25 45.027344 49.628906 44.878906 C 53.035156 44.832031 66.648438 45.011719 66.070312 49.945312 C 66.96875 49.683594 67.910156 49.378906 68.675781 48.863281 Z M 72.640625 44.789062 C 68.933594 42.703125 64.546875 42.34375 60.367188 41.988281 C 56.476562 41.566406 20.988281 40.699219 27.359375 48.675781 C 25.65625 41.238281 69.304688 41.832031 70.050781 48.101562 C 70.050781 48.90625 69.363281 49.46875 68.746094 49.847656 C 70.914062 49.257812 75.941406 47.355469 72.640625 44.789062 Z M 69.488281 63.175781 C 69.476562 63.179688 69.484375 63.207031 69.488281 63.222656 C 69.492188 63.195312 69.492188 63.175781 69.488281 63.175781 Z M 69.488281 63.175781 "/>
</g>
</svg>
